<svg xmlns="http://www.w3.org/2000/svg" xmlns:xlink="http://www.w3.org/1999/xlink" viewBox="0 0 240.06 240.06"><defs><style>.cls-1{fill:#ededed;}.cls-2,.cls-3,.cls-4{fill-rule:evenodd;}.cls-2{fill:url(#GradientFill_1);}.cls-3{fill:#c88c1c;}.cls-4{fill:#1f1963;}</style><linearGradient id="GradientFill_1" x1="100.72" y1="119.17" x2="124.89" y2="119.17" gradientUnits="userSpaceOnUse"><stop offset="0" stop-color="#1f1963"/><stop offset="1" stop-color="#020037"/></linearGradient></defs><g id="Layer_2" data-name="Layer 2"><g id="Layer_5" data-name="Layer 5"><rect class="cls-1" width="240.06" height="240.06"/><polygon class="cls-2" points="134.96 118.9 132.36 126.59 131.16 130.13 129.7 129.91 92.54 129.91 92.52 108.43 129.7 108.43 131.13 108.2 132.29 111.46 134.96 118.9"/><path class="cls-3" d="M161.36,104.77a14.07,14.07,0,0,0-11.55,6l13.79,8L150,127.24a14.12,14.12,0,1,0,11.38-22.47Z"/><path class="cls-4" d="M161.36,69.37a49.52,49.52,0,1,0,49.52,49.51A49.53,49.53,0,0,0,161.36,69.37Zm0,79.52a29.94,29.94,0,0,1-24.93-13.32l-9,5.54,3.72-11,1.2-3.54a30.14,30.14,0,0,1-.07-15.13l-1.16-3.26-3.77-10.51,8.7,5.07a30,30,0,1,1,25.3,46.13Zm-14.18,19.63-1.86,1.73a68.92,68.92,0,1,1-16.39-111.9l1.42.71-16.46,18.3-.77-.26a45.47,45.47,0,1,0,12.15,79.4l.44-.33A51.6,51.6,0,0,0,147.18,168.52Zm-15.89-32.24,5.89-17.4-5.9-16.48,28.24,16.49Z"/></g></g></svg>